<?xml version="1.0" encoding="utf-8"?>
<!-- Generator: Adobe Illustrator 16.0.4, SVG Export Plug-In . SVG Version: 6.00 Build 0)  -->
<!DOCTYPE svg PUBLIC "-//W3C//DTD SVG 1.1//EN" "http://www.w3.org/Graphics/SVG/1.1/DTD/svg11.dtd">
<svg version="1.1" id="Capa_1" xmlns="http://www.w3.org/2000/svg" xmlns:xlink="http://www.w3.org/1999/xlink" x="0px" y="0px"
	 width="232px" height="29.232px" viewBox="0 0 232 29.232" enable-background="new 0 0 232 29.232" xml:space="preserve">
<g>
	<path fill="#FFFFFF" d="M8.593,0.263c1.507-0.35,4.458-0.114,6.366-0.114c2.046,0,4.124,0,6.25,0
		c3.738,0,10.083-0.729,11.459,1.042c0.885,1.144,0.579,4.664,0.579,6.479c0,4.498,0,8.709,0,13.89c0,2.155,0.224,5.478-0.463,6.482
		c-0.919,1.348-3.321,1.153-5.788,1.153c-4.187,0-9.22,0-13.658,0c-2.31,0-5.253,0.316-6.366-0.926
		c-0.893-0.998-0.694-4.26-0.694-6.252c0-4.413,0-9.295,0-13.657c0-1.107-0.402-5.152,0.231-6.599
		C6.804,1.098,7.535,0.508,8.593,0.263z M18.895,7.44c-0.425,0-0.849,0-1.273,0c-0.074,0.428,0.15,1.15-0.116,1.394
		c-0.463,0-0.926,0-1.389,0c0,0.501,0,1.003,0,1.504c-0.463,0-0.926,0-1.389,0c-0.074,0.428,0.15,1.148-0.116,1.39
		c-0.459,0.043-1.109-0.104-1.389,0.115c0,0.463,0,0.926,0,1.391c-0.463,0-0.926,0-1.389,0c0,0.464,0,0.926,0,1.39
		c0.428,0.073,1.153-0.146,1.389,0.116c0,1.427,0,2.854,0,4.281c-0.463,0-0.926,0-1.389,0c0,0.464,0,0.927,0,1.391
		c5.286,0,10.571,0,15.857,0c0-0.464,0-0.927,0-1.391c-0.466-0.074-1.231,0.149-1.504-0.115c0-1.43,0-2.854,0-4.282
		c0.501,0,1.003,0,1.504,0c0-0.464,0-0.926,0-1.39c-0.501,0-1.003,0-1.504,0c0-0.501,0-1.004,0-1.506
		c-0.428-0.073-1.154,0.149-1.389-0.114c0-0.426,0-0.851,0-1.271c-0.501,0-1.003,0-1.505,0c0-0.501,0-1.003,0-1.504
		c-0.463,0-0.926,0-1.389,0c0-0.468,0-0.93,0-1.394c-0.428-0.073-1.153,0.147-1.389-0.116c0-0.424,0-0.848,0-1.271
		c-0.501,0-1.003,0-1.504,0C18.937,6.479,19.161,7.206,18.895,7.44z M11.834,23.299c5.286,0,10.571,0,15.857,0
		c0-0.464,0-0.929,0-1.394c-5.248,0-10.494,0-15.742,0C11.685,22.145,11.908,22.87,11.834,23.299z"/>
	<path fill="#FFFFFF" d="M14.728,14.617c0.463,0,0.926,0,1.389,0c0,1.47,0,2.937,0,4.396c-0.463,0-0.926,0-1.389,0
		C14.728,17.55,14.728,16.084,14.728,14.617z"/>
	<path fill="#FFFFFF" d="M17.622,14.617c0.463,0,0.926,0,1.389,0c0,1.47,0,2.937,0,4.396c-0.463,0-0.926,0-1.389,0
		C17.622,17.55,17.622,16.084,17.622,14.617z"/>
	<path fill="#FFFFFF" d="M20.515,14.617c0.463,0,0.926,0,1.389,0c0,1.47,0,2.937,0,4.396c-0.463,0-0.926,0-1.389,0
		C20.515,17.55,20.515,16.084,20.515,14.617z"/>
	<path fill="#FFFFFF" d="M23.293,14.617c0.501,0,1.003,0,1.505,0c0,1.47,0,2.937,0,4.396c-0.501,0-1.003,0-1.505,0
		C23.293,17.55,23.293,16.084,23.293,14.617z"/>
</g>
<g>
	<path fill="#FFFFFF" d="M45.28,6.699c4.64,0,9.28,0,13.92,0c0,1.357,0,2.724,0,4.079c-0.56,0-1.12,0-1.68,0
		c-0.947,0.146-0.282-1.313-0.48-1.92c-3.2,0-6.4,0-9.6,0c0,4.562,0,9.118,0,13.685c3.12,0,6.24,0,9.36,0
		c0.693-0.107-0.213-1.812,0.48-1.924c0.48,0,0.96,0,1.44,0c1.06,0.384,0.204,2.68,0.48,3.844c-4.64,0-9.28,0-13.92,0
		C45.28,18.539,45.28,12.619,45.28,6.699z"/>
	<path fill="#FFFFFF" d="M161.641,6.699c0.721-0.001,1.439,0,2.159,0c0,0.724,0,1.438,0,2.159c-0.72,0-1.438,0-2.159,0
		C161.641,8.137,161.641,7.419,161.641,6.699z"/>
	<path fill="#FFFFFF" d="M179.641,6.699c0.721-0.001,1.439,0,2.159,0c0,2,0,4,0,6c1.921,0,3.841,0,5.761,0c0,0.644,0,1.277,0,1.92
		c-1.84,0-3.681,0-5.521,0c-0.56,2.161-0.081,5.356-0.24,7.924c1.921,0,3.841,0,5.761,0c0,0.64,0,1.275,0,1.92
		c-2.641,0-5.274,0-7.92,0c0-3.2,0-6.399,0-9.604c-0.104-0.689-1.812,0.214-1.92-0.479c0-0.398,0-0.804,0-1.2
		c-0.146-0.944,1.317-0.28,1.92-0.479C179.641,10.699,179.641,8.699,179.641,6.699z"/>
	<path fill="#FFFFFF" d="M219.6,6.699c0,5.199,0,10.397,0,15.604c0.812,0.712,3.272-0.23,4.08,0.479c0,0.398,0,0.804,0,1.2
		c-0.342,0.896-1.85,0.459-2.88,0.479c-1.19,0.021-2.394-0.021-3.358,0c0-5.922,0-11.844,0-17.764
		C218.16,6.698,218.88,6.699,219.6,6.699z"/>
	<path fill="#FFFFFF" d="M73.24,12.699c0,3.92,0,7.844,0,11.764c-4,0-8,0-12,0c0-2.645,0-5.28,0-7.92c3.28,0,6.56,0,9.84,0
		c0-0.562,0-1.12,0-1.685c-2.801-0.561-6.64-0.08-9.84-0.239c0-0.643,0-1.276,0-1.92C65.24,12.699,69.24,12.699,73.24,12.699z
		 M63.4,22.539c2.56,0,5.12,0,7.68,0c0-1.278,0-2.562,0-3.842c-2.56,0-5.12,0-7.68,0C63.4,19.976,63.4,21.258,63.4,22.539z"/>
	<path fill="#FFFFFF" d="M75.04,12.699c6,0,12,0,18,0c0,3.92,0,7.844,0,11.764c-0.72,0-1.44,0-2.16,0c0-3.2,0-6.399,0-9.604
		c-1.442-0.559-3.918-0.082-5.76-0.239c0,3.279,0,6.562,0,9.844c-0.72,0-1.44,0-2.16,0c0-3.2,0-6.399,0-9.604
		c-1.442-0.559-3.918-0.082-5.76-0.239c0,3.279,0,6.562,0,9.844c-0.72,0-1.44,0-2.16,0C75.04,20.539,75.04,16.619,75.04,12.699z"/>
	<path fill="#FFFFFF" d="M106.84,12.699c0,3.92,0,7.844,0,11.764c-3.2,0-6.4,0-9.6,0c-0.712,0.809,0.232,3.271-0.48,4.08
		c-0.4,0-0.8,0-1.2,0c-0.896-0.799-0.474-2.389-0.48-3.604c-0.019-3.515,0.014-7.8,0-11.521c0-0.24,0-0.479,0-0.724
		C99,12.699,102.92,12.699,106.84,12.699z M97,22.539c2.64,0,5.28,0,7.92,0c0-2.643,0-5.278,0-7.922c-2.64,0-5.28,0-7.92,0
		C97,17.258,97,19.898,97,22.539z"/>
	<path fill="#FFFFFF" d="M111.04,12.699c0,3.277,0,6.562,0,9.844c2.48,0,4.96,0,7.44,0c0.559-2.805,0.08-6.644,0.24-9.844
		c0.719,0,1.438,0,2.158,0c0,3.92,0,7.844,0,11.764c-4,0-8,0-12,0c0-3.92,0-7.844,0-11.764
		C109.6,12.699,110.32,12.699,111.04,12.699z"/>
	<path fill="#FFFFFF" d="M122.92,12.699c3.92,0,7.84,0,11.76,0c0,0.644,0,1.277,0,1.92c-3.279,0-6.56,0-9.84,0
		c0,0.562,0,1.119,0,1.684c2.801,0.561,6.641,0.081,9.84,0.24c0,2.64,0,5.275,0,7.92c-3.92,0-7.84,0-11.76,0
		c0.156-1.204-0.314-3.035,0.24-3.844c0.4,0,0.8,0,1.199,0c0.947-0.146,0.283,1.315,0.479,1.924c2.562,0,5.12,0,7.682,0
		c0.559-0.81,0.084-2.64,0.238-3.844c-3.277,0-6.561,0-9.84,0C122.92,16.699,122.92,14.698,122.92,12.699z"/>
	<path fill="#FFFFFF" d="M163.8,12.699c0,3.92,0,7.844,0,11.764c-0.72,0-1.438,0-2.159,0c0-3.92,0-7.844,0-11.764
		C162.359,12.699,163.08,12.699,163.8,12.699z"/>
	<path fill="#FFFFFF" d="M165.84,12.699c3.201,0.159,7.039-0.315,9.84,0.239c0,0.398,0,0.8,0,1.198
		c-0.687,0.881-2.479,0.479-3.84,0.479c-1.436,0-2.874,0-4.08,0c-0.158,3.2,0.319,7.039-0.24,9.844c-0.396,0-0.799,0-1.199,0
		c-0.896-0.303-0.459-1.624-0.479-2.4c-0.068-2.553,0.055-5.875,0-8.64C165.84,13.177,165.84,12.938,165.84,12.699z"/>
	<path fill="#FFFFFF" d="M191.76,12.699c0,3.277,0,6.562,0,9.844c2.48,0,4.961,0,7.44,0c0.559-2.805,0.079-6.644,0.239-9.844
		c0.721,0,1.438,0,2.16,0c0,3.92,0,7.844,0,11.764c-4,0-8,0-12,0c0-3.92,0-7.844,0-11.764
		C190.32,12.699,191.04,12.699,191.76,12.699z"/>
	<path fill="#FFFFFF" d="M215.641,12.699c0,3.92,0,7.844,0,11.764c-4,0-8,0-12,0c0-2.645,0-5.28,0-7.92c3.279,0,6.562,0,9.84,0
		c0-0.562,0-1.12,0-1.685c-2.801-0.561-6.64-0.08-9.84-0.239c0-0.643,0-1.276,0-1.92C207.641,12.699,211.641,12.699,215.641,12.699z
		 M205.8,22.539c2.562,0,5.12,0,7.681,0c0-1.278,0-2.562,0-3.842c-2.561,0-5.119,0-7.681,0C205.8,19.976,205.8,21.258,205.8,22.539z
		"/>
	<path fill="#FFFFFF" d="M149.76,20.619c-0.64,0-1.279,0-1.92,0c0-0.643,0-1.276,0-1.92c-0.72,0-1.439,0-2.16,0c0-4.001,0-8,0-12
		c0.721-0.001,1.44,0,2.16,0c0,3.844,0,7.684,0,11.521c0.18,0.541,1.348,0.096,1.92,0.24c0,0.64,0,1.275,0,1.92
		c0.18,0.541,1.348,0.094,1.92,0.236c0,0.644,0,1.279,0,1.923c0.562,0,1.12,0,1.682,0c0.541-0.182,0.099-1.35,0.238-1.923
		c0.646,0,1.28,0,1.92,0c0-0.721,0-1.438,0-2.156c0.727,0,1.44,0,2.16,0c0-3.921,0-7.844,0-11.764c0.641,0,1.28,0,1.92,0
		c0,4,0,7.999,0,12c-0.56,0-1.119,0-1.68,0c-0.541,0.183-0.094,1.35-0.24,1.92c-0.64,0-1.279,0-1.92,0c0,0.644,0,1.279,0,1.923
		c-0.64,0-1.279,0-1.92,0c0,0.641,0,1.276,0,1.921c-0.72,0-1.439,0-2.16,0c0-0.562,0-1.12,0-1.685
		c-0.179-0.541-1.346-0.096-1.92-0.236C149.76,21.898,149.76,21.258,149.76,20.619z"/>
</g>
</svg>
